<svg xmlns="http://www.w3.org/2000/svg" width="920" height="250" viewBox="0 0 920 250" role="img" aria-label="市场变化概览">
  <rect width="920" height="250" rx="18" fill="#f7f8f7"/>
  <text x="24" y="34" font-family="Inter, 'Segoe UI', sans-serif" font-size="18" fill="#1f2722">市场变化概览</text>
  <text x="24" y="56" font-family="Inter, 'Segoe UI', sans-serif" font-size="12" fill="#737a70">按最新可用数据生成，仅用于局势判断</text>
  
  <g>
    <rect x="20" y="74" width="104" height="106" rx="8" fill="#f6f7f4" stroke="#dadfd6"/>
    <rect x="34" y="118" width="76" height="62" rx="6" fill="#1f8a5b" opacity="0.82"/>
    <text x="72.0" y="205" text-anchor="middle" font-size="12" fill="#2d332f">标普500</text>
    <text x="72.0" y="226" text-anchor="middle" font-size="12" fill="#1f8a5b">+1.74%</text>
  </g>
  <g>
    <rect x="134" y="74" width="104" height="106" rx="8" fill="#f6f7f4" stroke="#dadfd6"/>
    <rect x="148" y="87" width="76" height="93" rx="6" fill="#1f8a5b" opacity="0.82"/>
    <text x="186.0" y="205" text-anchor="middle" font-size="12" fill="#2d332f">纳斯达克</text>
    <text x="186.0" y="226" text-anchor="middle" font-size="12" fill="#1f8a5b">+2.99%</text>
  </g>
  <g>
    <rect x="248" y="74" width="104" height="106" rx="8" fill="#f6f7f4" stroke="#dadfd6"/>
    <rect x="262" y="133" width="76" height="47" rx="6" fill="#1f8a5b" opacity="0.82"/>
    <text x="300.0" y="205" text-anchor="middle" font-size="12" fill="#2d332f">上证指数</text>
    <text x="300.0" y="226" text-anchor="middle" font-size="12" fill="#1f8a5b">+1.12%</text>
  </g>
  <g>
    <rect x="362" y="74" width="104" height="106" rx="8" fill="#f6f7f4" stroke="#dadfd6"/>
    <rect x="376" y="142" width="76" height="38" rx="6" fill="#1f8a5b" opacity="0.82"/>
    <text x="414.0" y="205" text-anchor="middle" font-size="12" fill="#2d332f">深证成指</text>
    <text x="414.0" y="226" text-anchor="middle" font-size="12" fill="#1f8a5b">+0.75%</text>
  </g>
  <g>
    <rect x="476" y="74" width="104" height="106" rx="8" fill="#f6f7f4" stroke="#dadfd6"/>
    <rect x="490" y="148" width="76" height="32" rx="6" fill="#1f8a5b" opacity="0.82"/>
    <text x="528.0" y="205" text-anchor="middle" font-size="12" fill="#2d332f">创业板指</text>
    <text x="528.0" y="226" text-anchor="middle" font-size="12" fill="#1f8a5b">+0.50%</text>
  </g>
  <g>
    <rect x="590" y="74" width="104" height="106" rx="8" fill="#f6f7f4" stroke="#dadfd6"/>
    <rect x="604" y="74" width="76" height="106" rx="6" fill="#1f8a5b" opacity="0.82"/>
    <text x="642.0" y="205" text-anchor="middle" font-size="12" fill="#2d332f">韩国综指</text>
    <text x="642.0" y="226" text-anchor="middle" font-size="12" fill="#1f8a5b">+4.63%</text>
  </g>
  <g>
    <rect x="704" y="74" width="104" height="106" rx="8" fill="#f6f7f4" stroke="#dadfd6"/>
    <rect x="718" y="92" width="76" height="88" rx="6" fill="#1f8a5b" opacity="0.82"/>
    <text x="756.0" y="205" text-anchor="middle" font-size="12" fill="#2d332f">日经225</text>
    <text x="756.0" y="226" text-anchor="middle" font-size="12" fill="#1f8a5b">+2.81%</text>
  </g>
  <g>
    <rect x="818" y="74" width="104" height="106" rx="8" fill="#f6f7f4" stroke="#dadfd6"/>
    <rect x="832" y="102" width="76" height="78" rx="6" fill="#1f8a5b" opacity="0.82"/>
    <text x="870.0" y="205" text-anchor="middle" font-size="12" fill="#2d332f">台湾加权</text>
    <text x="870.0" y="226" text-anchor="middle" font-size="12" fill="#1f8a5b">+2.36%</text>
  </g>
</svg>
